<svg xmlns="http://www.w3.org/2000/svg" xmlns:xlink="http://www.w3.org/1999/xlink" width="294" height="287" viewBox="0 0 294 287">
  <defs>
    <filter id="PORTS" x="6" y="181.858" width="282" height="107" filterUnits="userSpaceOnUse">
      <feOffset dy="3" input="SourceAlpha"/>
      <feGaussianBlur stdDeviation="3" result="blur"/>
      <feFlood flood-opacity="0.161"/>
      <feComposite operator="in" in2="blur"/>
      <feComposite in="SourceGraphic"/>
    </filter>
    <filter id="Subtraction_1" x="50" y="5" width="194.717" height="194.717" filterUnits="userSpaceOnUse">
      <feOffset dy="3" input="SourceAlpha"/>
      <feGaussianBlur stdDeviation="3" result="blur-2"/>
      <feFlood flood-opacity="0.161"/>
      <feComposite operator="in" in2="blur-2"/>
      <feComposite in="SourceGraphic"/>
    </filter>
    <clipPath id="clip-Logo_Square">
      <rect width="294" height="287"/>
    </clipPath>
  </defs>
  <g id="Logo_Square" clip-path="url(#clip-Logo_Square)">
    <g id="Group_1" data-name="Group 1" transform="translate(-87 -7.142)">
      <g transform="matrix(1, 0, 0, 1, 87, 7.14)" filter="url(#PORTS)">
        <text id="PORTS-2" data-name="PORTS" transform="translate(15 258.86)" fill="#273444" font-size="73" font-family="Montserrat" font-weight="800" font-style="italic"><tspan x="0" y="0">PORTS</tspan></text>
      </g>
      <g transform="matrix(1, 0, 0, 1, 87, 7.14)" filter="url(#Subtraction_1)">
        <path id="Subtraction_1-2" data-name="Subtraction 1" d="M115.074,180.432a87.946,87.946,0,0,1-49.4-15.09,88.616,88.616,0,0,1-32.013-38.875,88.242,88.242,0,0,1,8.147-83.8A88.617,88.617,0,0,1,80.681,10.659a88.242,88.242,0,0,1,83.8,8.147,88.617,88.617,0,0,1,32.013,38.875,88.242,88.242,0,0,1-8.147,83.8,88.617,88.617,0,0,1-38.875,32.013A87.8,87.8,0,0,1,115.074,180.432Zm-.206-129.916a40.494,40.494,0,0,0-8.525.911A38.133,38.133,0,0,0,88,61.09,42.243,42.243,0,0,0,76.678,79.817a41.929,41.929,0,0,0-1.073,21.8,38.245,38.245,0,0,0,9.824,18.215,44.65,44.65,0,0,0,30.978,13.083,37.365,37.365,0,0,0,6.694-.6,39.13,39.13,0,0,0,16.377-6.958,37.891,37.891,0,0,0,11.138-12.829l4.1-13.417L113.148,86.4l-3.6,11.767,26.394,8.069a27.136,27.136,0,0,1-5,6.6,21.082,21.082,0,0,1-6.357,4.174,20.158,20.158,0,0,1-7.857,1.55,27.414,27.414,0,0,1-7.98-1.281,26.09,26.09,0,0,1-11.6-6.912A22.5,22.5,0,0,1,91.437,99a29.738,29.738,0,0,1,1.077-14.341,29.657,29.657,0,0,1,7-12.289,22.33,22.33,0,0,1,10.938-6.277,22.857,22.857,0,0,1,5.237-.605,26.738,26.738,0,0,1,7.8,1.224,23.2,23.2,0,0,1,10,5.825,18.923,18.923,0,0,1,5.006,9.587l17.706,5.414a33.907,33.907,0,0,0-7.767-21.8c-5.066-6.137-12-10.584-20.611-13.216A44.386,44.386,0,0,0,114.868,50.516Zm58.8,49.907h0v3.3h5.425v17.062h4.082V103.719H188.6v-3.3H173.668Zm-14.437-.029v20.387h11.812v-3.326h-7.729v-5.4h6.854v-3.237h-6.853v-5.1h7.729v-3.325H159.231Z" transform="translate(32.28 7.28)" fill="#273444"/>
      </g>
    </g>
  </g>
</svg>
